<svg id="Capa_1" data-name="Capa 1" xmlns="http://www.w3.org/2000/svg" viewBox="0 0 1722 566"><defs><style>.cls-1{fill:#f49b25;}.cls-2{fill:#f4580d;}.cls-3{fill:#fff;}</style></defs><path class="cls-1" d="M422,480.43H493a2.09,2.09,0,0,0,1.86-1.13l71.73-138.06a2.12,2.12,0,0,0,0-1.93L496.29,204a2.11,2.11,0,0,0-1.86-1.13h-71.1a2.1,2.1,0,0,0-1.86,3.06l69.35,133.5a2.06,2.06,0,0,1,0,1.93l-70.63,136A2.09,2.09,0,0,0,422,480.43Z"/><path class="cls-2" d="M340.45,480.43H101.11a2.11,2.11,0,0,1-1.87-3.08l203-390.65a2.12,2.12,0,0,1,1.87-1.13h70.3a2.11,2.11,0,0,1,1.87,3.08L209.78,409a2.11,2.11,0,0,0,1.87,3.08h87a2.12,2.12,0,0,0,1.87-1.13l72.28-139.19a2.11,2.11,0,0,1,3.74,0l36.27,69.81a2.08,2.08,0,0,1,0,1.94L342.32,479.3A2.11,2.11,0,0,1,340.45,480.43Z"/><path class="cls-3" d="M737.7,116.36h50.81V399.69H923.72v44.78h-186Z"/><path class="cls-3" d="M1063.66,204.63q47.79,0,75.14,24.81T1166.14,300V444.47h-49.09V409.16h-1.72q-28,40.48-78.37,40.48-23.25,0-41.55-9a69.29,69.29,0,0,1-28.63-25.41q-10.34-16.35-10.34-37.46,0-33.59,25-53.39t70.19-19.81h65.45v-7.37q0-23-16.58-35.8t-41.55-12.81q-37,0-62.43,26.7l-30.58-30.14Q1004.67,204.64,1063.66,204.63ZM1017.8,399.05q11,9.68,31.22,9.68,19.8,0,35.31-8.39a61.22,61.22,0,0,0,24.11-23,62.52,62.52,0,0,0,8.61-32.29v-3.45h-66.31q-22.83,0-33.37,9.26t-10.55,24.33Q1006.82,389.36,1017.8,399.05Z"/><path class="cls-3" d="M1235.89,396.25V248.12h-19.8v-37h19.8v-57.7H1285v57.7h62.87v37H1285V372.56q0,15.07,5.81,21.1t18.3,6h38.76v44.78h-63.73Q1235.9,444.47,1235.89,396.25Z"/><path class="cls-3" d="M1442.58,434.57a113.45,113.45,0,0,1-43.92-42.85q-16.37-27.77-16.36-64.8,0-35.73,15.93-63.51a113.51,113.51,0,0,1,43.49-43.28q27.55-15.49,61.14-15.5a124.13,124.13,0,0,1,59.86,14.86,112,112,0,0,1,43.92,42.63q16.35,27.76,16.36,64.8,0,35.74-15.93,63.73a113.59,113.59,0,0,1-43.28,43.49q-27.35,15.5-60.93,15.5A123.64,123.64,0,0,1,1442.58,434.57Zm-1.72-68a66.3,66.3,0,0,0,24.76,27.77q16.14,10.13,37.24,10.12t37-10.12a67,67,0,0,0,24.54-27.77q8.61-17.66,8.61-39.62a88.18,88.18,0,0,0-8.61-39.18A67,67,0,0,0,1539.9,260q-15.95-10.11-37-10.12T1465.62,260a66.38,66.38,0,0,0-24.76,27.78q-8.62,17.65-8.61,39.18Q1432.25,348.88,1440.86,366.54Z"/></svg>